<?xml version="1.0" encoding="UTF-8" standalone="no"?>
<!-- Created with Inkscape (http://www.inkscape.org/) -->

<svg
   xmlns:dc="http://purl.org/dc/elements/1.1/"
   xmlns:cc="http://creativecommons.org/ns#"
   xmlns:rdf="http://www.w3.org/1999/02/22-rdf-syntax-ns#"
   xmlns:svg="http://www.w3.org/2000/svg"
   xmlns="http://www.w3.org/2000/svg"
   xmlns:sodipodi="http://sodipodi.sourceforge.net/DTD/sodipodi-0.dtd"
   xmlns:inkscape="http://www.inkscape.org/namespaces/inkscape"
   width="996.40851"
   height="239.88535"
   viewBox="0 0 263.63308 63.469666"
   version="1.1"
   id="svg8"
   inkscape:version="0.92.0 r15299"
   sodipodi:docname="logo_web.svg">
  <defs
     id="defs2" />
  <sodipodi:namedview
     id="base"
     pagecolor="#ffffff"
     bordercolor="#666666"
     borderopacity="1.0"
     inkscape:pageopacity="0.0"
     inkscape:pageshadow="2"
     inkscape:zoom="0.7"
     inkscape:cx="318.12326"
     inkscape:cy="426.45296"
     inkscape:document-units="mm"
     inkscape:current-layer="layer1"
     showgrid="false"
     inkscape:window-width="2560"
     inkscape:window-height="1377"
     inkscape:window-x="-8"
     inkscape:window-y="-8"
     inkscape:window-maximized="1"
     units="px"
     fit-margin-top="0"
     fit-margin-left="0"
     fit-margin-right="0"
     fit-margin-bottom="0" />
  <metadata
     id="metadata5">
    <rdf:RDF>
      <cc:Work
         rdf:about="">
        <dc:format>image/svg+xml</dc:format>
        <dc:type
           rdf:resource="http://purl.org/dc/dcmitype/StillImage" />
        <dc:title></dc:title>
      </cc:Work>
    </rdf:RDF>
  </metadata>
  <g
     inkscape:label="Layer 1"
     inkscape:groupmode="layer"
     id="layer1"
     transform="translate(-3.6501189,-222.93182)">
    <g
       inkscape:export-ydpi="113.11986"
       inkscape:export-xdpi="113.11986"
       transform="matrix(1.2174636,0,0,1.2174636,-95.854248,50.727228)"
       id="g4787">
      <path
         sodipodi:nodetypes="cssc"
         inkscape:connector-curvature="0"
         id="path4771"
         d="m 111.76961,169.69443 c 3.81681,5.88886 2.13709,13.75685 -3.75176,17.57366 -5.88886,3.81681 -13.756843,2.13709 -17.573653,-3.75175 -3.81682,-5.88885 -2.13709,-13.75685 3.75176,-17.57366"
         style="fill:none;fill-opacity:1;stroke:#fca211;stroke-width:3;stroke-linecap:butt;stroke-linejoin:miter;stroke-miterlimit:4;stroke-dasharray:none;stroke-opacity:1" />
      <path
         style="fill:none;stroke:#fca211;stroke-width:2;stroke-linecap:butt;stroke-linejoin:miter;stroke-miterlimit:4;stroke-dasharray:none;stroke-opacity:1"
         d="m 104.75055,160.33226 c 0,0 -4.56734,-11.91066 3.58208,-14.95555 8.14942,-3.04479 12.44795,-0.89531 18.08988,-2.32833 -3.94031,6.00004 -4.06147,10.57746 -9.04494,14.86592 -4.34636,3.74023 -12.62702,2.41796 -12.62702,2.41796 z"
         id="path4773"
         inkscape:connector-curvature="0"
         sodipodi:nodetypes="cccsc" />
      <path
         style="fill:none;stroke:#fca211;stroke-width:2;stroke-linecap:butt;stroke-linejoin:miter;stroke-miterlimit:4;stroke-dasharray:none;stroke-opacity:1"
         d="m 93.382647,152.34883 c -2.5075,-1.43292 -5.37323,0.17906 -9.85093,0.8953 3.04479,4.02994 2.0057,5.25389 5.10452,7.74637 2.05974,1.6568 8.50765,0.31341 8.50765,0.31341 0,0 -1.25375,-7.52228 -3.76124,-8.95508 z"
         id="path4775"
         inkscape:connector-curvature="0"
         sodipodi:nodetypes="ccscc" />
      <path
         style="fill:none;stroke:#fca211;stroke-width:3;stroke-linecap:butt;stroke-linejoin:miter;stroke-miterlimit:4;stroke-dasharray:none;stroke-opacity:1"
         d="m 100.85292,163.89355 0.27621,13.76605"
         id="path4777"
         inkscape:connector-curvature="0" />
      <path
         style="fill:none;stroke:#fca211;stroke-width:2;stroke-linecap:butt;stroke-linejoin:miter;stroke-miterlimit:4;stroke-dasharray:none;stroke-opacity:1"
         d="m 100.97505,165.03642 3.7755,-4.70416"
         id="path4779"
         inkscape:connector-curvature="0" />
      <path
         style="fill:none;stroke:#fca211;stroke-width:2;stroke-linecap:butt;stroke-linejoin:miter;stroke-miterlimit:4;stroke-dasharray:none;stroke-opacity:1"
         d="m 97.143887,161.30423 3.831163,3.73219"
         id="path4781"
         inkscape:connector-curvature="0" />
      <path
         style="color:#000000;font-style:normal;font-variant:normal;font-weight:normal;font-stretch:normal;font-size:medium;line-height:normal;font-family:sans-serif;font-variant-ligatures:normal;font-variant-position:normal;font-variant-caps:normal;font-variant-numeric:normal;font-variant-alternates:normal;font-feature-settings:normal;text-indent:0;text-align:start;text-decoration:none;text-decoration-line:none;text-decoration-style:solid;text-decoration-color:#000000;letter-spacing:normal;word-spacing:normal;text-transform:none;writing-mode:lr-tb;direction:ltr;text-orientation:mixed;dominant-baseline:auto;baseline-shift:baseline;text-anchor:start;white-space:normal;shape-padding:0;clip-rule:nonzero;display:inline;overflow:visible;visibility:visible;opacity:1;isolation:auto;mix-blend-mode:normal;color-interpolation:sRGB;color-interpolation-filters:linearRGB;solid-color:#000000;solid-opacity:1;vector-effect:none;fill:#fca211;fill-opacity:1;fill-rule:nonzero;stroke:none;stroke-width:1.60833216;stroke-linecap:butt;stroke-linejoin:miter;stroke-miterlimit:4;stroke-dasharray:none;stroke-dashoffset:0;stroke-opacity:1;color-rendering:auto;image-rendering:auto;shape-rendering:auto;text-rendering:auto;enable-background:accumulate"
         d="m 105.86969,157.3225 c -0.51553,0.87221 -0.79524,1.59357 -0.94532,2.11328 -0.15007,0.5197 -0.17382,0.89648 -0.17382,0.89648 l 1.60546,0.0703 c 0,0 3.1e-4,-0.1283 0.11329,-0.51953 0.11297,-0.39123 0.33603,-0.98563 0.7832,-1.74219 0.89434,-1.51312 2.68276,-3.67713 6.27344,-6.10742 -4.11909,1.52917 -6.67381,3.66411 -7.65625,5.28907 z"
         id="path4783"
         inkscape:connector-curvature="0"
         sodipodi:nodetypes="ccccsscc" />
      <path
         id="path4785"
         style="color:#000000;font-style:normal;font-variant:normal;font-weight:normal;font-stretch:normal;font-size:medium;line-height:normal;font-family:sans-serif;font-variant-ligatures:normal;font-variant-position:normal;font-variant-caps:normal;font-variant-numeric:normal;font-variant-alternates:normal;font-feature-settings:normal;text-indent:0;text-align:start;text-decoration:none;text-decoration-line:none;text-decoration-style:solid;text-decoration-color:#000000;letter-spacing:normal;word-spacing:normal;text-transform:none;writing-mode:lr-tb;direction:ltr;text-orientation:mixed;dominant-baseline:auto;baseline-shift:baseline;text-anchor:start;white-space:normal;shape-padding:0;clip-rule:nonzero;display:inline;overflow:visible;visibility:visible;opacity:1;isolation:auto;mix-blend-mode:normal;color-interpolation:sRGB;color-interpolation-filters:linearRGB;solid-color:#000000;solid-opacity:1;vector-effect:none;fill:#fca211;fill-opacity:1;fill-rule:nonzero;stroke:none;stroke-width:1.0722214;stroke-linecap:butt;stroke-linejoin:miter;stroke-miterlimit:4;stroke-dasharray:none;stroke-dashoffset:0;stroke-opacity:1;color-rendering:auto;image-rendering:auto;shape-rendering:auto;text-rendering:auto;enable-background:accumulate"
         d="m 91.370137,156.92803 c 1.52246,1.26823 2.76131,1.88611 4.26488,4.03544 l 0.91016,-0.56446 c 0,0 -1.97535,-2.13969 -5.17504,-3.47098 z"
         inkscape:connector-curvature="0"
         sodipodi:nodetypes="cccc" />
    </g>
    <g
       aria-label="keep_growing"
       style="font-style:normal;font-variant:normal;font-weight:bold;font-stretch:normal;font-size:34.43639374px;line-height:21.52274704px;font-family:'Arima Madurai';-inkscape-font-specification:'Arima Madurai Bold';text-align:center;letter-spacing:0px;word-spacing:0px;text-anchor:middle;fill:#fca211;fill-opacity:1;stroke:none;stroke-width:0.86090976"
       id="text4791">
      <path
         d="m 70.10687,275.45071 q 0.516546,0.51655 0.516546,1.27415 0,0.96422 -0.86091,1.61851 -0.826473,0.65429 -2.031747,0.65429 -1.033092,0 -1.894001,-0.61985 -0.826474,-0.61986 -1.308583,-1.7907 l -2.548294,-5.50982 q -1.894001,0.65429 -3.271457,0.89535 0,3.06484 0.103309,4.09793 0.103309,1.03309 0.516546,2.10062 -0.447673,0.3788 -0.964219,0.58542 -0.516546,0.24105 -1.308583,0.24105 -1.170837,0 -1.61851,-0.55098 -0.447673,-0.58542 -0.447673,-1.61851 l -0.03444,-21.48831 q 0,-0.92978 0.585419,-1.44633 0.619855,-0.55098 1.584074,-0.55098 1.274147,0 2.135056,0.86091 -0.309927,1.61851 -0.413236,2.75491 -0.10331,1.10196 -0.137746,2.6516 0,0.99866 -0.03444,1.58408 l -0.03444,3.89131 q 0.792037,-2.16949 2.444984,-3.40921 1.652947,-1.23971 3.994622,-1.23971 2.169493,0 3.237021,1.06753 1.101965,1.06753 1.101965,2.82379 0,1.96287 -1.377456,3.44364 -1.377456,1.48076 -3.512512,2.47942 0.860909,0.27549 1.721819,1.68738 l 1.446329,2.54829 q 0.482109,0.82648 0.723164,1.10197 0.275491,0.24105 0.723164,0.24105 0.585419,0 0.964219,-0.3788 z m -11.398446,-4.9244 q 2.927094,-0.86091 4.889968,-2.34168 1.997311,-1.48076 1.997311,-3.65025 0,-2.10062 -1.928438,-2.10062 -1.411892,0 -2.548293,1.06752 -1.136401,1.06753 -1.790693,2.9271 -0.619855,1.85956 -0.619855,4.09793 z"
         style="font-style:normal;font-variant:normal;font-weight:bold;font-stretch:normal;font-family:'Arima Madurai';-inkscape-font-specification:'Arima Madurai Bold';text-align:center;text-anchor:middle;fill:#fca211;fill-opacity:1;stroke-width:0.86090976"
         id="path4912" />
      <path
         d="m 87.146967,273.79777 q 0.550982,0.24105 0.550982,0.86091 0,0.41323 -0.241054,0.99865 -0.654292,1.61851 -2.341675,2.47942 -1.652947,0.86091 -3.994622,0.86091 -3.925749,0 -6.198551,-2.41055 -2.238365,-2.41054 -2.238365,-6.85284 0,-4.37342 2.203929,-6.8184 2.203929,-2.47943 6.30186,-2.47943 2.995966,0 4.855532,1.34302 1.859565,1.30859 1.859565,3.75357 0,2.54829 -2.066184,3.92575 -2.031747,1.34302 -5.544259,1.34302 -1.997311,0 -3.546949,-0.17218 0.241055,3.20258 1.618511,4.58004 1.377456,1.37745 3.753567,1.37745 1.859565,0 3.168148,-0.7576 1.343019,-0.7576 1.859565,-2.03174 z m -6.095242,-11.94943 q -2.031747,0 -3.202584,1.92843 -1.136401,1.89401 -1.136401,5.40652 0.895346,0.10331 1.825129,0.10331 2.341675,0 3.822439,-0.92978 1.480765,-0.92979 1.480765,-3.40921 0,-1.68738 -0.792037,-2.37611 -0.792037,-0.72316 -1.997311,-0.72316 z"
         style="font-style:normal;font-variant:normal;font-weight:bold;font-stretch:normal;font-family:'Arima Madurai';-inkscape-font-specification:'Arima Madurai Bold';text-align:center;text-anchor:middle;fill:#fca211;fill-opacity:1;stroke-width:0.86090976"
         id="path4914" />
      <path
         d="m 105.03775,273.79777 q 0.55098,0.24105 0.55098,0.86091 0,0.41323 -0.24105,0.99865 -0.6543,1.61851 -2.34168,2.47942 -1.65295,0.86091 -3.99462,0.86091 -3.925749,0 -6.198551,-2.41055 -2.238366,-2.41054 -2.238366,-6.85284 0,-4.37342 2.203929,-6.8184 2.20393,-2.47943 6.30186,-2.47943 2.995968,0 4.855528,1.34302 1.85957,1.30859 1.85957,3.75357 0,2.54829 -2.06618,3.92575 -2.03175,1.34302 -5.544264,1.34302 -1.997311,0 -3.546948,-0.17218 0.241054,3.20258 1.61851,4.58004 1.377456,1.37745 3.753572,1.37745 1.85956,0 3.16814,-0.7576 1.34302,-0.7576 1.85957,-2.03174 z m -6.095243,-11.94943 q -2.031747,0 -3.202585,1.92843 -1.136401,1.89401 -1.136401,5.40652 0.895346,0.10331 1.825129,0.10331 2.341675,0 3.82244,-0.92978 1.48076,-0.92979 1.48076,-3.40921 0,-1.68738 -0.79203,-2.37611 -0.79204,-0.72316 -1.997313,-0.72316 z"
         style="font-style:normal;font-variant:normal;font-weight:bold;font-stretch:normal;font-family:'Arima Madurai';-inkscape-font-specification:'Arima Madurai Bold';text-align:center;text-anchor:middle;fill:#fca211;fill-opacity:1;stroke-width:0.86090976"
         id="path4916" />
      <path
         d="m 119.48489,260.43644 q 3.27146,0 4.64892,2.44499 1.41189,2.44498 1.41189,6.12968 0,4.78666 -1.96287,7.40382 -1.92844,2.58273 -5.40652,2.58273 -1.61851,0 -2.75491,-0.58542 -1.1364,-0.61985 -1.61851,-1.75625 v 2.75491 q 0,3.65026 0.58542,5.85418 -0.92978,0.82648 -2.16949,0.82648 -0.92979,0 -1.54964,-0.55098 -0.61986,-0.51655 -0.61986,-1.4119 l 0.0344,-18.94001 q 0,-0.92979 -0.24106,-1.34302 -0.20661,-0.41324 -0.68872,-0.41324 -0.6543,0 -0.89535,0.44767 -0.44767,-0.65429 -0.44767,-1.30858 0,-0.86091 0.68872,-1.41189 0.68873,-0.58542 1.7907,-0.58542 2.99596,0 3.27145,4.47673 1.68739,-4.61448 5.92306,-4.61448 z m -2.20392,16.52947 q 4.23567,0 4.23567,-7.9548 0,-3.06484 -0.65429,-4.75223 -0.65429,-1.72182 -2.47942,-1.72182 -1.44633,0 -2.47942,1.23971 -1.03309,1.23972 -1.54964,3.27146 -0.51654,2.03175 -0.51654,4.30455 0,2.75491 0.7576,4.20124 0.79203,1.41189 2.68604,1.41189 z"
         style="font-style:normal;font-variant:normal;font-weight:bold;font-stretch:normal;font-family:'Arima Madurai';-inkscape-font-specification:'Arima Madurai Bold';text-align:center;text-anchor:middle;fill:#fca211;fill-opacity:1;stroke-width:0.86090976"
         id="path4918" />
      <path
         d="m 141.18736,280.9261 v 1.96287 l -15.3242,-0.0689 v -1.96287 z"
         style="font-style:normal;font-variant:normal;font-weight:bold;font-stretch:normal;font-family:'Arima Madurai';-inkscape-font-specification:'Arima Madurai Bold';text-align:center;text-anchor:middle;fill:#fca211;fill-opacity:1;stroke-width:0.86090976"
         id="path4920" />
      <path
         d="m 147.85995,286.40149 q -2.72048,0 -4.47674,-0.99866 -1.75625,-0.99866 -1.75625,-3.0304 0,-1.23971 0.7576,-1.99731 0.7576,-0.72317 1.96287,-0.72317 1.23971,0 1.75626,0.65429 -0.99866,0.79204 -0.99866,2.23837 0,1.20527 0.7576,1.894 0.75761,0.68873 2.10062,0.68873 2.51386,0 3.75357,-2.03175 1.27415,-2.03175 1.27415,-5.75088 v -2.47942 q -0.58542,1.7907 -1.99731,2.75492 -1.37746,0.96421 -3.40921,0.96421 -2.89265,0 -4.51116,-2.06618 -1.58408,-2.06618 -1.58408,-6.50848 0,-4.23567 1.894,-6.88728 1.89401,-2.68604 6.26743,-2.68604 2.10062,0 3.96018,0.58542 1.894,0.58542 3.09928,1.68739 v 14.2911 q 0,9.40114 -8.85015,9.40114 z m 0.82647,-9.67663 q 2.13506,0 3.16815,-1.85957 1.06753,-1.894 1.10196,-4.85553 l 0.0344,-7.16277 q -0.51655,-0.48211 -1.37746,-0.72316 -0.86091,-0.27549 -1.82513,-0.27549 -2.47942,0 -3.4092,2.23836 -0.89535,2.20393 -0.89535,6.26743 0,3.47807 0.72317,4.9244 0.7576,1.44633 2.47942,1.44633 z"
         style="font-style:normal;font-variant:normal;font-weight:bold;font-stretch:normal;font-family:'Arima Madurai';-inkscape-font-specification:'Arima Madurai Bold';text-align:center;text-anchor:middle;fill:#fca211;fill-opacity:1;stroke-width:0.86090976"
         id="path4922" />
      <path
         d="m 169.6571,260.43644 q 1.89401,0 3.06484,0.99866 1.17084,0.99866 1.17084,2.75491 0,1.30858 -0.7576,2.10062 -0.7576,0.79204 -1.894,0.79204 -1.06753,0 -1.54964,-0.55098 0.3788,-0.61986 0.51655,-1.10197 0.13774,-0.51654 0.13774,-1.17084 0,-1.96287 -1.72182,-1.96287 -1.37745,0 -2.23836,2.03175 -0.82648,1.99731 -0.82648,6.02637 v 1.30858 q 0,3.06484 0.10331,4.23568 0.10331,1.1364 0.51655,2.16949 -0.34437,0.30993 -0.89535,0.55098 -0.55098,0.24106 -1.27414,0.27549 -0.92979,0 -1.58408,-0.58542 -0.61985,-0.58542 -0.61985,-1.58407 v -11.6395 q 0,-0.92978 -0.24106,-1.34302 -0.20662,-0.44767 -0.68873,-0.44767 -0.65429,0 -0.89534,0.4821 -0.44768,-0.65429 -0.44768,-1.30858 0,-0.89534 0.6543,-1.44633 0.65429,-0.58542 1.82512,-0.58542 1.4119,0 2.23837,0.96422 0.82647,0.96422 0.86091,2.85822 1.20527,-3.82244 4.5456,-3.82244 z"
         style="font-style:normal;font-variant:normal;font-weight:bold;font-stretch:normal;font-family:'Arima Madurai';-inkscape-font-specification:'Arima Madurai Bold';text-align:center;text-anchor:middle;fill:#fca211;fill-opacity:1;stroke-width:0.86090976"
         id="path4924" />
      <path
         d="m 184.12147,278.99766 q -3.89131,0 -6.06081,-2.44498 -2.13505,-2.44499 -2.13505,-6.81841 0,-4.40786 2.16949,-6.85284 2.16949,-2.44499 6.02637,-2.44499 3.89131,0 6.0608,2.44499 2.1695,2.44498 2.1695,6.85284 0,4.37342 -2.1695,6.81841 -2.16949,2.44498 -6.0608,2.44498 z m 0,-1.41189 q 2.06618,0 3.09927,-1.99731 1.06753,-1.99731 1.06753,-5.85419 0,-3.89131 -1.06753,-5.88862 -1.03309,-1.99731 -3.09927,-1.99731 -2.06619,0 -3.13371,1.99731 -1.0331,1.99731 -1.0331,5.88862 0,3.85688 1.0331,5.85419 1.06752,1.99731 3.13371,1.99731 z"
         style="font-style:normal;font-variant:normal;font-weight:bold;font-stretch:normal;font-family:'Arima Madurai';-inkscape-font-specification:'Arima Madurai Bold';text-align:center;text-anchor:middle;fill:#fca211;fill-opacity:1;stroke-width:0.86090976"
         id="path4926" />
      <path
         d="m 201.56996,278.99766 q -1.58407,0 -2.06618,-1.30858 l -4.37342,-14.32554 q -0.51655,-1.44633 -0.96422,-1.92844 0.79203,-0.86091 2.16949,-0.86091 0.86091,0 1.44633,0.3788 0.61985,0.3788 0.79204,1.10197 l 3.61582,14.32553 3.09927,-13.08582 q 0.13775,-0.82648 0.13775,-1.37746 0,-0.61986 -0.24106,-0.96422 0.86091,-0.34436 2.47942,-0.41324 2.13506,0 2.51386,1.34302 l 3.51251,14.49772 3.20259,-13.08582 q 0.20661,-0.89535 0.20661,-1.37746 0,-0.55098 -0.24105,-0.96422 0.92978,-0.3788 1.92844,-0.3788 1.06753,0 1.54964,0.3788 0.51654,0.34436 0.51654,1.17084 0,1.06753 -0.3788,2.10062 l -4.82109,14.18779 q -1.37746,0.58542 -2.5483,0.58542 -0.7576,0 -1.34302,-0.30993 -0.58541,-0.30992 -0.72316,-0.99865 l -3.37477,-13.32689 -3.37476,14.05005 q -1.37746,0.58542 -2.72048,0.58542 z"
         style="font-style:normal;font-variant:normal;font-weight:bold;font-stretch:normal;font-family:'Arima Madurai';-inkscape-font-specification:'Arima Madurai Bold';text-align:center;text-anchor:middle;fill:#fca211;fill-opacity:1;stroke-width:0.86090976"
         id="path4928" />
      <path
         d="m 226.07468,258.30139 q -0.96422,0 -1.65295,-0.65429 -0.65429,-0.65429 -0.65429,-1.58408 0,-0.96422 0.65429,-1.61851 0.68873,-0.68873 1.65295,-0.68873 0.92978,0 1.58407,0.68873 0.68873,0.65429 0.68873,1.61851 0,0.92979 -0.68873,1.58408 -0.65429,0.65429 -1.58407,0.65429 z m 2.03175,15.73743 q 0,2.68604 0.55098,4.09793 -0.96422,0.86091 -2.1695,0.86091 -0.92978,0 -1.5152,-0.51654 -0.58542,-0.55099 -0.58542,-1.48077 l -0.0344,-11.6395 q 0,-2.51386 -0.55098,-4.13237 1.03309,-0.82647 2.10062,-0.82647 0.92978,0 1.5152,0.55098 0.61985,0.51655 0.61985,1.44633 z"
         style="font-style:normal;font-variant:normal;font-weight:bold;font-stretch:normal;font-family:'Arima Madurai';-inkscape-font-specification:'Arima Madurai Bold';text-align:center;text-anchor:middle;fill:#fca211;fill-opacity:1;stroke-width:0.86090976"
         id="path4930" />
      <path
         d="m 248.37494,274.03882 q 0.0689,2.82378 0.61985,4.09793 -0.92978,0.86091 -2.16949,0.86091 -0.96422,0 -1.58407,-0.51654 -0.61986,-0.55099 -0.61986,-1.48077 v -8.9879 q -0.0344,-2.85822 -0.68873,-4.20124 -0.61985,-1.37745 -2.30723,-1.37745 -1.1364,0 -2.10062,0.86091 -0.92979,0.86091 -1.51521,2.6516 -0.58541,1.75625 -0.58541,4.40786 0,4.06349 0.10331,5.37207 0.1033,1.30859 0.55098,2.44499 -0.34437,0.30993 -0.92978,0.55098 -0.55099,0.27549 -1.20528,0.27549 -0.99865,0 -1.61851,-0.58542 -0.61985,-0.58542 -0.61985,-1.58407 v -11.74281 q -0.0344,-0.96422 -0.24106,-1.37746 -0.20662,-0.41323 -0.68873,-0.41323 -0.65429,0 -0.89534,0.4821 -0.44768,-0.65429 -0.44768,-1.30858 0,-0.89534 0.6543,-1.44633 0.65429,-0.58542 1.82512,-0.58542 1.48077,0 2.27281,1.0331 0.82647,0.99865 0.82647,2.99596 v 0.17218 q 0.68873,-2.03174 2.16949,-3.09927 1.5152,-1.10197 3.65026,-1.10197 2.82378,0 4.1668,1.75626 1.37746,1.75626 1.37746,5.26877 z"
         style="font-style:normal;font-variant:normal;font-weight:bold;font-stretch:normal;font-family:'Arima Madurai';-inkscape-font-specification:'Arima Madurai Bold';text-align:center;text-anchor:middle;fill:#fca211;fill-opacity:1;stroke-width:0.86090976"
         id="path4932" />
      <path
         d="m 258.43306,286.40149 q -2.72048,0 -4.47673,-0.99866 -1.75626,-0.99866 -1.75626,-3.0304 0,-1.23971 0.7576,-1.99731 0.7576,-0.72317 1.96288,-0.72317 1.23971,0 1.75625,0.65429 -0.99865,0.79204 -0.99865,2.23837 0,1.20527 0.7576,1.894 0.7576,0.68873 2.10062,0.68873 2.51385,0 3.75356,-2.03175 1.27415,-2.03175 1.27415,-5.75088 v -2.47942 q -0.58542,1.7907 -1.99731,2.75492 -1.37746,0.96421 -3.4092,0.96421 -2.89266,0 -4.51117,-2.06618 -1.58408,-2.06618 -1.58408,-6.50848 0,-4.23567 1.89401,-6.88728 1.894,-2.68604 6.26742,-2.68604 2.10062,0 3.96019,0.58542 1.894,0.58542 3.09927,1.68739 v 14.2911 q 0,9.40114 -8.85015,9.40114 z m 0.82647,-9.67663 q 2.13506,0 3.16815,-1.85957 1.06753,-1.894 1.10196,-4.85553 l 0.0344,-7.16277 q -0.51655,-0.48211 -1.37746,-0.72316 -0.86091,-0.27549 -1.82512,-0.27549 -2.47942,0 -3.40921,2.23836 -0.89534,2.20393 -0.89534,6.26743 0,3.47807 0.72316,4.9244 0.7576,1.44633 2.47942,1.44633 z"
         style="font-style:normal;font-variant:normal;font-weight:bold;font-stretch:normal;font-family:'Arima Madurai';-inkscape-font-specification:'Arima Madurai Bold';text-align:center;text-anchor:middle;fill:#fca211;fill-opacity:1;stroke-width:0.86090976"
         id="path4934" />
    </g>
    <g
       id="g4835"
       transform="matrix(1.1825535,0,0,1.1825535,-87.132061,189.9055)"
       inkscape:export-xdpi="391.18884"
       inkscape:export-ydpi="391.18884" />
  </g>
</svg>
